D:\school\WTK\thesis\model\3dpredictsim\Results\Batchsim_tmt_linear_v2\Pog_s1_tmt_aCst_d00_k800_ig24_pas_GRF.mot
nRows=15
nColumns=19

name D:\school\WTK\thesis\model\3dpredictsim\Results\Batchsim_tmt_linear_v2\Pog_s1_tmt_aCst_d00_k800_ig24_pas_GRF.mot
datacolumns 19
datarows 15
range 0.0000000000 0.1510538278
endheader
time 	ground_force_vx	ground_force_vy	ground_force_vz	ground_force_px	ground_force_py	ground_force_pz	1_ground_force_vx	1_ground_force_vy	1_ground_force_vz	1_ground_force_px	1_ground_force_py	1_ground_force_pz	ground_torque_x	ground_torque_y	ground_torque_z	1_ground_torque_x	1_ground_torque_y	1_ground_torque_z
        0.0000000000	      -56.3047148658	       39.9018148302	       11.2444622519	        0.1653107210	        0.0000000000	        0.0466070474	      127.5088412901	      531.5341138722	        3.8045919991	       -0.3466115856	        0.0000000000	       -0.0482461181	        0.0000000000	        0.0000000000	        0.0000000000	        0.0000000000	        0.0000000000	        0.0000000000	
        0.0107895591	     -104.8703220204	       92.2292494898	       29.2565305128	        0.1755028466	        0.0000000000	        0.0445511735	      102.0788807870	      442.1445243766	       -1.3048541398	       -0.3366144747	        0.0000000000	       -0.0470118273	        0.0000000000	        0.0000000000	        0.0000000000	        0.0000000000	        0.0000000000	        0.0000000000	
        0.0215791183	     -109.9581276716	      199.2801410499	       57.7983102827	        0.1820847031	        0.0000000000	        0.0434732000	       67.7582068398	      339.4401925131	       -7.1875190717	       -0.3205589707	        0.0000000000	       -0.0446318988	        0.0000000000	        0.0000000000	        0.0000000000	        0.0000000000	        0.0000000000	        0.0000000000	
        0.0323686774	      -62.2407630699	      364.8378953503	       10.0961220016	        0.1870269538	        0.0000000000	        0.0424650456	       31.6333669716	      238.5340546948	       -5.5164103347	       -0.2949553093	        0.0000000000	       -0.0402701499	        0.0000000000	        0.0000000000	        0.0000000000	        0.0000000000	        0.0000000000	        0.0000000000	
        0.0431582365	      -71.1995309396	      574.8564233812	       -5.7849715286	        0.1955153785	        0.0000000000	        0.0445828001	        7.7676305577	      162.6380168685	       -8.8446067775	       -0.2637796817	        0.0000000000	       -0.0330106641	        0.0000000000	        0.0000000000	        0.0000000000	        0.0000000000	        0.0000000000	        0.0000000000	
        0.0539477956	     -110.6577211623	      784.3110512207	      -13.6728887238	        0.2042561620	        0.0000000000	        0.0472310200	       -1.4780925032	      135.1542882991	      -12.6708906860	       -0.2590325947	        0.0000000000	       -0.0316925502	        0.0000000000	        0.0000000000	        0.0000000000	        0.0000000000	        0.0000000000	        0.0000000000	
        0.0647373548	     -128.5311082111	      893.3810554985	      -17.3001481316	        0.2101229921	        0.0000000000	        0.0488601302	       -2.0978307701	      102.0168521289	      -14.1944938519	       -0.2584231722	        0.0000000000	       -0.0318901558	        0.0000000000	        0.0000000000	        0.0000000000	        0.0000000000	        0.0000000000	        0.0000000000	
        0.0755269139	     -126.4178701550	      903.8253819690	      -17.7839411658	        0.2143806872	        0.0000000000	        0.0499174576	       -4.8483169500	       65.5273834356	      -13.2377604226	       -0.2579272570	        0.0000000000	       -0.0320139259	        0.0000000000	        0.0000000000	        0.0000000000	        0.0000000000	        0.0000000000	        0.0000000000	
        0.0863164730	     -116.5877365540	      869.7989313138	      -17.3273098898	        0.2180437340	        0.0000000000	        0.0506795472	       -8.8440603652	       27.3372660739	       -6.7701180368	       -0.2582132572	        0.0000000000	       -0.0317004691	        0.0000000000	        0.0000000000	        0.0000000000	        0.0000000000	        0.0000000000	        0.0000000000	
        0.0971060322	     -104.2275026982	      832.9682453036	      -15.8675914569	        0.2219000646	        0.0000000000	        0.0513212345	        0.1719547242	       -0.1713174186	        0.0148871907	        0.0000000000	        0.0000000000	        0.0000000000	        0.0000000000	        0.0000000000	        0.0000000000	        0.0000000000	        0.0000000000	        0.0000000000	
        0.1078955913	      -95.1113265460	      808.3448341374	      -17.0623805411	        0.2270264369	        0.0000000000	        0.0519953628	        0.0004809086	       -0.0003923919	       -0.0000038049	        0.0000000000	        0.0000000000	        0.0000000000	        0.0000000000	        0.0000000000	        0.0000000000	        0.0000000000	        0.0000000000	        0.0000000000	
        0.1186851504	      -87.5773781924	      784.3171594597	      -17.0155411900	        0.2331355588	        0.0000000000	        0.0522295445	        0.0002014493	       -0.0001429426	       -0.0000054883	        0.0000000000	        0.0000000000	        0.0000000000	        0.0000000000	        0.0000000000	        0.0000000000	        0.0000000000	        0.0000000000	        0.0000000000	
        0.1294747095	      -78.9286522627	      749.0204284845	      -16.7381504790	        0.2390251137	        0.0000000000	        0.0523503800	        0.0014560850	       -0.0009256903	       -0.0000520925	        0.0000000000	        0.0000000000	        0.0000000000	        0.0000000000	        0.0000000000	        0.0000000000	        0.0000000000	        0.0000000000	        0.0000000000	
        0.1402642687	      -70.5828775062	      712.4983446716	      -16.4487299264	        0.2447931401	        0.0000000000	        0.0523543690	        0.0058960266	       -0.0034348255	       -0.0002352185	        0.0000000000	        0.0000000000	        0.0000000000	        0.0000000000	        0.0000000000	        0.0000000000	        0.0000000000	        0.0000000000	        0.0000000000	
        0.1510538278	      -62.6448683251	      681.4542402893	      -16.3750906550	        0.2504677495	        0.0000000000	        0.0523071346	       -0.0580059484	        0.0314404099	        0.0024639182	        0.0000000000	        0.0000000000	        0.0000000000	        0.0000000000	        0.0000000000	        0.0000000000	        0.0000000000	        0.0000000000	        0.0000000000	
